<?xml version="1.0" encoding="UTF-8" standalone="no"?>
<svg
   xmlns:dc="http://purl.org/dc/elements/1.1/"
   xmlns:cc="http://creativecommons.org/ns#"
   xmlns:rdf="http://www.w3.org/1999/02/22-rdf-syntax-ns#"
   xmlns:svg="http://www.w3.org/2000/svg"
   xmlns="http://www.w3.org/2000/svg"
   viewBox="0 0 582.5 396.66626"
   height="396.66626"
   width="582.5"
   xml:space="preserve"
   version="1.1"
   id="svg2"><metadata
     id="metadata8"><rdf:RDF><cc:Work
         rdf:about=""><dc:format>image/svg+xml</dc:format><dc:type
           rdf:resource="http://purl.org/dc/dcmitype/StillImage" /></cc:Work></rdf:RDF></metadata><defs
     id="defs6"><clipPath
       id="clipPath12"
       clipPathUnits="userSpaceOnUse"><path
         id="path14"
         d="M 0,0 504,0 504,360 0,360 0,0 Z" /></clipPath><clipPath
       id="clipPath20"
       clipPathUnits="userSpaceOnUse"><path
         id="path22"
         d="M 0,360 504,360 504,0 0,0 0,360 Z" /></clipPath></defs><g
     clip-path="url(#clipPath12)"
     transform="matrix(1.25,0,0,-1.25,-17.08375,424.58375)"
     id="g10"><g
       id="g16"><g
         clip-path="url(#clipPath20)"
         id="g18"><g
           transform="translate(212.1772,126.0293)"
           id="g24"><path
             id="path26"
             style="fill:#2a9ab8;fill-opacity:1;fill-rule:nonzero;stroke:none"
             d="m 0,0 c 0,0 5.728,-5.198 11.574,-4.532 5.845,0.667 6.199,5.532 1.374,7.024 -4.826,1.489 -13.38,3.02 -15.342,7.807 -1.961,4.787 -0.941,12.162 6.121,14.869 7.063,2.708 16.008,-0.432 19.382,-3.727 L 18.949,15.4 c 0,0 -4.59,3.648 -9.063,3.648 -4.471,0 -5.296,-2.196 -5.138,-3.53 C 4.904,14.183 5.14,12.967 9.651,11.672 14.163,10.377 23.423,8.729 24.089,1.705 24.755,-5.316 21.303,-11.369 10.946,-11.673 1.608,-11.946 -4.826,-5.748 -4.826,-5.748 L 0,0 Z" /></g><g
           transform="translate(254.7139,121.2314)"
           id="g28"><path
             id="path30"
             style="fill:#2a9ab8;fill-opacity:1;fill-rule:nonzero;stroke:none"
             d="m 0,0 c -3.796,0 -6.872,3.492 -6.872,7.8 0,4.305 3.076,7.797 6.872,7.797 3.794,0 6.87,-3.492 6.87,-7.797 C 6.87,3.492 3.794,0 0,0 m 1.996,22.354 c -6.278,-0.116 -8.75,-4.509 -8.75,-4.509 l 0,3.922 -8.005,0 0,-36.489 8.005,0 0,12.163 c 0,0 3.02,-4.395 8.788,-4.276 5.769,0.116 12.008,3.885 12.751,13.613 0.748,9.732 -6.512,15.695 -12.789,15.576" /></g><path
           id="path32"
           style="fill:#2a9ab8;fill-opacity:1;fill-rule:nonzero;stroke:none"
           d="m 273.031,114.906 8.24,0 0,28.131 -8.24,0 0,-28.131 z" /><path
           id="path34"
           style="fill:#2a9ab8;fill-opacity:1;fill-rule:nonzero;stroke:none"
           d="m 281.271,153.277 -8.24,0 0,-7.102 8.24,0 0,7.102 z" /><path
           id="path36"
           style="fill:#2a9ab8;fill-opacity:1;fill-rule:nonzero;stroke:none"
           d="m 285.899,114.906 8.24,0 0,28.131 -8.24,0 0,-28.131 z" /><g
           transform="translate(293.9531,137.3877)"
           id="g38"><path
             id="path40"
             style="fill:#2a9ab8;fill-opacity:1;fill-rule:nonzero;stroke:none"
             d="m 0,0 c 0,0 2.354,6.769 8.975,6.209 l 0,-8.356 c 0,0 -7.766,0.823 -8.858,-7.799 C -3.502,-10.447 0,0 0,0" /></g><g
           transform="translate(309.3623,131.1494)"
           id="g42"><path
             id="path44"
             style="fill:#2a9ab8;fill-opacity:1;fill-rule:nonzero;stroke:none"
             d="m 0,0 13.655,0 c 0,0 -0.589,5.767 -5.494,6.081 C 3.258,6.395 0.472,1.53 1.727,-5.021 c 1.254,-6.554 9.613,-6.907 13.575,-2.552 l 4.552,-3.962 c 0,0 -3.374,-5.337 -11.458,-5.337 -8.081,0 -14.477,5.808 -14.633,14.557 -0.159,8.75 6.552,15.107 14.359,14.713 7.808,-0.393 13.812,-5.375 13.066,-17.303 l -21.147,0" /></g><g
           transform="translate(170.1558,114.5928)"
           id="g46"><path
             id="path48"
             style="fill:#2a9ab8;fill-opacity:1;fill-rule:nonzero;stroke:none"
             d="M 0,0 29.459,0 6.21,8.509 0,0 Z M 27.234,37.323 32.886,0 l 0.582,0 0,45.866 -6.234,-8.543 z M 9.075,12.437 30.231,0 30.928,0 15.298,20.965 9.075,12.437 Z M 18.103,24.808 31.57,0 32.227,0 24.356,33.379 18.103,24.808 Z" /></g><g
           transform="translate(182.5977,197.0933)"
           id="g50"><path
             id="path52"
             style="fill:#696461;fill-opacity:1;fill-rule:nonzero;stroke:none"
             d="M 0,0 9.792,0 4.896,9.242 0,0 Z m 5.006,24.48 20.465,-39.609 -9.792,-0.055 -3.796,8.088 -14.138,0 -3.741,-8.088 -9.353,0.055 20.245,39.609 0.11,0 z" /></g><g
           transform="translate(216.5942,194.04)"
           id="g54"><path
             id="path56"
             style="fill:#696461;fill-opacity:1;fill-rule:nonzero;stroke:none"
             d="m 0,0 c 0.367,-0.899 0.861,-1.697 1.486,-2.394 0.622,-0.696 1.366,-1.256 2.227,-1.677 0.861,-0.421 1.769,-0.633 2.725,-0.633 0.99,0 1.916,0.212 2.777,0.633 0.861,0.421 1.603,0.981 2.227,1.677 0.625,0.697 1.109,1.495 1.459,2.394 0.348,0.898 0.523,1.824 0.523,2.778 0,0.917 -0.175,1.824 -0.523,2.723 C 12.551,6.4 12.067,7.197 11.442,7.895 10.818,8.59 10.076,9.15 9.215,9.572 8.354,9.994 7.428,10.205 6.438,10.205 5.482,10.205 4.574,9.994 3.713,9.572 2.852,9.15 2.108,8.59 1.486,7.895 0.861,7.197 0.367,6.4 0,5.501 -0.367,4.602 -0.551,3.695 -0.551,2.778 -0.551,1.824 -0.367,0.898 0,0 m -0.109,-21.813 -8.528,0 0,38.894 8.032,0 0,-4.346 0.054,0 c 0.772,1.577 1.945,2.842 3.523,3.796 1.575,0.953 3.262,1.43 5.059,1.43 1.982,0.037 3.833,-0.384 5.557,-1.265 1.723,-0.88 3.209,-2.045 4.455,-3.493 1.249,-1.449 2.229,-3.108 2.944,-4.979 0.715,-1.87 1.055,-3.795 1.019,-5.776 0.036,-1.907 -0.339,-3.768 -1.129,-5.585 -0.789,-1.814 -1.861,-3.419 -3.218,-4.812 -1.356,-1.395 -2.907,-2.513 -4.649,-3.356 -1.742,-0.843 -3.548,-1.228 -5.418,-1.155 -1.651,0 -3.154,0.256 -4.512,0.77 -1.355,0.513 -2.383,1.338 -3.08,2.475 l -0.109,0 0,-12.598 z" /></g><g
           transform="translate(249.6025,194.04)"
           id="g58"><path
             id="path60"
             style="fill:#696461;fill-opacity:1;fill-rule:nonzero;stroke:none"
             d="m 0,0 c 0.367,-0.899 0.861,-1.697 1.486,-2.394 0.621,-0.696 1.366,-1.256 2.227,-1.677 0.861,-0.421 1.769,-0.633 2.725,-0.633 0.99,0 1.916,0.212 2.777,0.633 0.861,0.421 1.603,0.981 2.226,1.677 0.625,0.697 1.11,1.495 1.459,2.394 0.348,0.898 0.524,1.824 0.524,2.778 0,0.917 -0.176,1.824 -0.524,2.723 C 12.551,6.4 12.066,7.197 11.441,7.895 10.818,8.59 10.076,9.15 9.215,9.572 8.354,9.994 7.428,10.205 6.438,10.205 5.482,10.205 4.574,9.994 3.713,9.572 2.852,9.15 2.107,8.59 1.486,7.895 0.861,7.197 0.367,6.4 0,5.501 -0.367,4.602 -0.551,3.695 -0.551,2.778 -0.551,1.824 -0.367,0.898 0,0 m -0.109,-21.813 -8.528,0 0,38.894 8.032,0 0,-4.346 0.054,0 c 0.772,1.577 1.944,2.842 3.522,3.796 1.576,0.953 3.263,1.43 5.06,1.43 1.981,0.037 3.832,-0.384 5.557,-1.265 1.723,-0.88 3.209,-2.045 4.457,-3.493 1.246,-1.449 2.226,-3.108 2.941,-4.979 0.715,-1.87 1.055,-3.795 1.02,-5.776 0.035,-1.907 -0.34,-3.768 -1.129,-5.585 -0.789,-1.814 -1.861,-3.419 -3.219,-4.812 -1.355,-1.395 -2.906,-2.513 -4.646,-3.356 -1.744,-0.843 -3.551,-1.228 -5.42,-1.155 -1.651,0 -3.154,0.256 -4.512,0.77 -1.355,0.513 -2.383,1.338 -3.08,2.475 l -0.109,0 0,-12.598 z" /></g><g
           transform="translate(264.2119,181.666)"
           id="g62"><path
             id="path64"
             style="fill:#f37b20;fill-opacity:1;fill-rule:nonzero;stroke:none"
             d="m 0,0 37.703,0 -6.885,-9.181 9.508,0 40.983,56.065 -16.393,0 L 0,0 Z" /></g><g
           transform="translate(290.5498,188.8799)"
           id="g66"><path
             id="path68"
             style="fill:#ffffff;fill-opacity:1;fill-rule:nonzero;stroke:none"
             d="M 0,0 13.115,0 41.311,32.348 0,0 Z" /></g><g
           transform="translate(273.9717,192.8159)"
           id="g70"><path
             id="path72"
             style="fill:#696461;fill-opacity:1;fill-rule:nonzero;stroke:none"
             d="m 0,0 8.582,5.877 0,12.043 L 0,17.865 0,0 Z m 4.127,20.396 c 1.283,0 2.346,0.43 3.189,1.293 0.844,0.861 1.266,1.934 1.266,3.218 0,1.246 -0.432,2.311 -1.291,3.191 -0.863,0.88 -1.918,1.32 -3.164,1.32 -1.211,0 -2.256,-0.44 -3.137,-1.32 -0.879,-0.88 -1.32,-1.945 -1.32,-3.191 0,-1.247 0.441,-2.311 1.32,-3.191 0.881,-0.88 1.926,-1.32 3.137,-1.32" /></g><path
           id="path74"
           style="fill:#f37b20;fill-opacity:1;fill-rule:nonzero;stroke:none"
           d="m 339,164.474 -166,0 0,1.053 166,0 0,-1.053 z" /><g
           transform="translate(189.9546,101.2939)"
           id="g76"><path
             id="path78"
             style="fill:#696461;fill-opacity:1;fill-rule:nonzero;stroke:none"
             d="m 0,0 0,-1.392 1.511,0 0,-0.803 -1.511,0 0,-3.13 c 0,-0.72 0.203,-1.128 0.791,-1.128 0.287,0 0.455,0.024 0.611,0.072 L 1.451,-7.172 C 1.246,-7.256 0.923,-7.328 0.516,-7.328 c -0.493,0 -0.889,0.168 -1.141,0.456 -0.299,0.311 -0.407,0.827 -0.407,1.511 l 0,3.166 -0.9,0 0,0.803 0.9,0 0,1.068 L 0,0 Z" /></g><g
           transform="translate(195.9526,97.0596)"
           id="g80"><path
             id="path82"
             style="fill:#696461;fill-opacity:1;fill-rule:nonzero;stroke:none"
             d="m 0,0 c -1.151,0.024 -2.459,-0.18 -2.459,-1.307 0,-0.683 0.457,-1.007 0.996,-1.007 0.756,0 1.235,0.479 1.403,0.971 C -0.023,-1.235 0,-1.115 0,-1.007 L 0,0 Z m 1.02,-1.57 c 0,-0.504 0.023,-0.996 0.095,-1.392 l -0.959,0 -0.084,0.732 -0.036,0 c -0.323,-0.457 -0.947,-0.864 -1.774,-0.864 -1.176,0 -1.776,0.827 -1.776,1.667 0,1.404 1.247,2.171 3.491,2.159 l 0,0.12 c 0,0.48 -0.133,1.343 -1.32,1.343 -0.54,0 -1.103,-0.168 -1.511,-0.431 l -0.24,0.695 c 0.48,0.312 1.175,0.516 1.906,0.516 1.776,0 2.208,-1.211 2.208,-2.374 l 0,-2.171 z" /></g><g
           transform="translate(199.9624,97.2402)"
           id="g84"><path
             id="path86"
             style="fill:#696461;fill-opacity:1;fill-rule:nonzero;stroke:none"
             d="m 0,0 0.023,0 c 0.145,0.203 0.348,0.455 0.516,0.659 l 1.703,2.003 1.272,0 -2.243,-2.387 2.554,-3.418 -1.283,0 L 0.539,-0.36 0,-0.96 l 0,-2.183 -1.044,0 0,8.516 L 0,5.373 0,0 Z" /></g><g
           transform="translate(208.4683,97.5635)"
           id="g88"><path
             id="path90"
             style="fill:#696461;fill-opacity:1;fill-rule:nonzero;stroke:none"
             d="M 0,0 C 0.012,0.672 -0.275,1.716 -1.463,1.716 -2.53,1.716 -2.998,0.731 -3.082,0 L 0,0 Z m -3.094,-0.755 c 0.024,-1.428 0.936,-2.016 1.99,-2.016 0.756,0 1.212,0.132 1.608,0.3 l 0.18,-0.755 c -0.371,-0.168 -1.007,-0.372 -1.931,-0.372 -1.787,0 -2.855,1.188 -2.855,2.939 0,1.751 1.032,3.13 2.723,3.13 1.895,0 2.399,-1.667 2.399,-2.735 0,-0.215 -0.024,-0.383 -0.036,-0.491 l -4.078,0 z" /></g><path
           id="path92"
           style="fill:#696461;fill-opacity:1;fill-rule:nonzero;stroke:none"
           d="m 213.822,99.902 1.057,0 0,-5.805 -1.057,0 0,5.805 z m 1.176,1.631 c 0.011,-0.359 -0.252,-0.647 -0.672,-0.647 -0.371,0 -0.635,0.288 -0.635,0.647 0,0.372 0.275,0.66 0.659,0.66 0.396,0 0.648,-0.288 0.648,-0.66" /><g
           transform="translate(218.1421,101.2939)"
           id="g94"><path
             id="path96"
             style="fill:#696461;fill-opacity:1;fill-rule:nonzero;stroke:none"
             d="m 0,0 0,-1.392 1.511,0 0,-0.803 -1.511,0 0,-3.13 c 0,-0.72 0.203,-1.128 0.791,-1.128 0.287,0 0.455,0.024 0.611,0.072 L 1.451,-7.172 C 1.246,-7.256 0.923,-7.328 0.516,-7.328 c -0.493,0 -0.889,0.168 -1.141,0.456 -0.299,0.311 -0.407,0.827 -0.407,1.511 l 0,3.166 -0.9,0 0,0.803 0.9,0 0,1.068 L 0,0 Z" /></g><g
           transform="translate(227.5483,97.5635)"
           id="g98"><path
             id="path100"
             style="fill:#696461;fill-opacity:1;fill-rule:nonzero;stroke:none"
             d="M 0,0 C 0.012,0.672 -0.276,1.716 -1.464,1.716 -2.531,1.716 -2.999,0.731 -3.083,0 L 0,0 Z m -3.095,-0.755 c 0.025,-1.428 0.936,-2.016 1.991,-2.016 0.755,0 1.211,0.132 1.607,0.3 l 0.181,-0.755 c -0.373,-0.168 -1.008,-0.372 -1.932,-0.372 -1.787,0 -2.855,1.188 -2.855,2.939 0,1.751 1.033,3.13 2.723,3.13 1.896,0 2.4,-1.667 2.4,-2.735 0,-0.215 -0.026,-0.383 -0.038,-0.491 l -4.077,0 z" /></g><g
           transform="translate(230.5249,99.9023)"
           id="g102"><path
             id="path104"
             style="fill:#696461;fill-opacity:1;fill-rule:nonzero;stroke:none"
             d="M 0,0 1.141,-3.262 C 1.332,-3.79 1.488,-4.27 1.607,-4.749 l 0.037,0 c 0.131,0.479 0.299,0.959 0.491,1.487 L 3.263,0 4.366,0 2.088,-5.805 1.08,-5.805 -1.127,0 0,0 Z" /></g><g
           transform="translate(239.6919,97.5635)"
           id="g106"><path
             id="path108"
             style="fill:#696461;fill-opacity:1;fill-rule:nonzero;stroke:none"
             d="M 0,0 C 0.012,0.672 -0.276,1.716 -1.464,1.716 -2.53,1.716 -2.999,0.731 -3.083,0 L 0,0 Z m -3.095,-0.755 c 0.025,-1.428 0.936,-2.016 1.991,-2.016 0.755,0 1.212,0.132 1.607,0.3 l 0.181,-0.755 c -0.372,-0.168 -1.007,-0.372 -1.931,-0.372 -1.787,0 -2.856,1.188 -2.856,2.939 0,1.751 1.033,3.13 2.723,3.13 1.896,0 2.4,-1.667 2.4,-2.735 0,-0.215 -0.025,-0.383 -0.037,-0.491 l -4.078,0 z" /></g><g
           transform="translate(242.2612,98.0918)"
           id="g110"><path
             id="path112"
             style="fill:#696461;fill-opacity:1;fill-rule:nonzero;stroke:none"
             d="m 0,0 c 0,0.684 -0.012,1.271 -0.047,1.811 l 0.923,0 0.036,-1.14 0.048,0 c 0.264,0.78 0.899,1.271 1.606,1.271 0.122,0 0.205,-0.011 0.301,-0.036 l 0,-0.995 C 2.759,0.936 2.65,0.947 2.508,0.947 1.764,0.947 1.236,0.384 1.092,-0.408 1.068,-0.552 1.044,-0.72 1.044,-0.899 l 0,-3.095 L 0,-3.994 0,0 Z" /></g><g
           transform="translate(247.1089,99.9023)"
           id="g114"><path
             id="path116"
             style="fill:#696461;fill-opacity:1;fill-rule:nonzero;stroke:none"
             d="m 0,0 1.271,-3.43 c 0.133,-0.383 0.277,-0.84 0.373,-1.187 l 0.024,0 c 0.107,0.347 0.228,0.791 0.371,1.211 L 3.191,0 4.307,0 2.723,-4.138 C 1.967,-6.129 1.451,-7.148 0.732,-7.771 0.217,-8.228 -0.299,-8.407 -0.563,-8.455 l -0.264,0.888 c 0.264,0.084 0.612,0.252 0.924,0.515 0.288,0.228 0.647,0.636 0.887,1.175 0.047,0.108 0.084,0.192 0.084,0.252 0,0.061 -0.024,0.145 -0.072,0.276 L -1.15,0 0,0 Z" /></g><g
           transform="translate(253.1816,99.9023)"
           id="g118"><path
             id="path120"
             style="fill:#696461;fill-opacity:1;fill-rule:nonzero;stroke:none"
             d="m 0,0 0.768,-2.95 c 0.168,-0.648 0.324,-1.247 0.431,-1.847 l 0.035,0 C 1.367,-4.21 1.559,-3.586 1.75,-2.95 L 2.697,0 3.586,0 4.484,-2.902 C 4.701,-3.598 4.869,-4.21 5,-4.797 l 0.037,0 c 0.096,0.587 0.252,1.199 0.443,1.883 L 6.309,0 7.352,0 5.48,-5.805 l -0.959,0 -0.888,2.771 C 3.43,-2.387 3.262,-1.811 3.117,-1.127 l -0.023,0 C 2.949,-1.823 2.77,-2.423 2.566,-3.046 l -0.935,-2.759 -0.959,0 L -1.081,0 0,0 Z" /></g><g
           transform="translate(261.834,102.6133)"
           id="g122"><path
             id="path124"
             style="fill:#696461;fill-opacity:1;fill-rule:nonzero;stroke:none"
             d="m 0,0 1.057,0 0,-3.622 0.023,0 c 0.168,0.3 0.432,0.563 0.756,0.743 0.31,0.18 0.684,0.3 1.078,0.3 0.779,0 2.027,-0.48 2.027,-2.483 l 0,-3.454 -1.054,0 0,3.334 c 0,0.936 -0.348,1.728 -1.344,1.728 -0.684,0 -1.223,-0.481 -1.416,-1.056 -0.059,-0.143 -0.07,-0.3 -0.07,-0.504 l 0,-3.502 L 0,-8.516 0,0 Z" /></g><g
           transform="translate(272.416,97.5635)"
           id="g126"><path
             id="path128"
             style="fill:#696461;fill-opacity:1;fill-rule:nonzero;stroke:none"
             d="M 0,0 C 0.012,0.672 -0.275,1.716 -1.463,1.716 -2.531,1.716 -2.998,0.731 -3.082,0 L 0,0 Z m -3.094,-0.755 c 0.024,-1.428 0.936,-2.016 1.99,-2.016 0.756,0 1.211,0.132 1.608,0.3 l 0.18,-0.755 c -0.371,-0.168 -1.008,-0.372 -1.932,-0.372 -1.787,0 -2.854,1.188 -2.854,2.939 0,1.751 1.032,3.13 2.723,3.13 1.895,0 2.399,-1.667 2.399,-2.735 0,-0.215 -0.024,-0.383 -0.036,-0.491 l -4.078,0 z" /></g><g
           transform="translate(274.9863,98.0918)"
           id="g130"><path
             id="path132"
             style="fill:#696461;fill-opacity:1;fill-rule:nonzero;stroke:none"
             d="m 0,0 c 0,0.684 -0.012,1.271 -0.049,1.811 l 0.924,0 0.035,-1.14 0.049,0 c 0.264,0.78 0.898,1.271 1.607,1.271 0.12,0 0.204,-0.011 0.299,-0.036 l 0,-0.995 C 2.758,0.936 2.65,0.947 2.506,0.947 1.762,0.947 1.234,0.384 1.09,-0.408 1.066,-0.552 1.043,-0.72 1.043,-0.899 l 0,-3.095 L 0,-3.994 0,0 Z" /></g><g
           transform="translate(282.7129,97.5635)"
           id="g134"><path
             id="path136"
             style="fill:#696461;fill-opacity:1;fill-rule:nonzero;stroke:none"
             d="M 0,0 C 0.012,0.672 -0.277,1.716 -1.465,1.716 -2.531,1.716 -3,0.731 -3.084,0 L 0,0 Z m -3.096,-0.755 c 0.026,-1.428 0.936,-2.016 1.992,-2.016 0.754,0 1.211,0.132 1.606,0.3 l 0.182,-0.755 c -0.373,-0.168 -1.008,-0.372 -1.932,-0.372 -1.787,0 -2.856,1.188 -2.856,2.939 0,1.751 1.034,3.13 2.723,3.13 1.897,0 2.401,-1.667 2.401,-2.735 0,-0.215 -0.026,-0.383 -0.038,-0.491 l -4.078,0 z" /></g><g
           transform="translate(288.4492,99.9023)"
           id="g138"><path
             id="path140"
             style="fill:#696461;fill-opacity:1;fill-rule:nonzero;stroke:none"
             d="m 0,0 1.271,-3.43 c 0.133,-0.383 0.276,-0.84 0.372,-1.187 l 0.025,0 c 0.107,0.347 0.227,0.791 0.371,1.211 L 3.191,0 4.307,0 2.723,-4.138 C 1.967,-6.129 1.451,-7.148 0.732,-7.771 0.217,-8.228 -0.299,-8.407 -0.563,-8.455 l -0.265,0.888 c 0.265,0.084 0.613,0.252 0.924,0.515 0.289,0.228 0.648,0.636 0.888,1.175 0.047,0.108 0.084,0.192 0.084,0.252 0,0.061 -0.025,0.145 -0.072,0.276 L -1.15,0 0,0 Z" /></g><g
           transform="translate(294.4844,96.9883)"
           id="g142"><path
             id="path144"
             style="fill:#696461;fill-opacity:1;fill-rule:nonzero;stroke:none"
             d="m 0,0 c 0,-1.271 0.732,-2.231 1.764,-2.231 1.007,0 1.763,0.948 1.763,2.254 0,0.984 -0.492,2.232 -1.74,2.232 C 0.541,2.255 0,1.104 0,0 m 4.605,0.06 c 0,-2.147 -1.486,-3.082 -2.888,-3.082 -1.572,0 -2.783,1.151 -2.783,2.986 0,1.942 1.271,3.082 2.879,3.082 1.666,0 2.792,-1.211 2.792,-2.986" /></g><g
           transform="translate(305.5234,95.6807)"
           id="g146"><path
             id="path148"
             style="fill:#696461;fill-opacity:1;fill-rule:nonzero;stroke:none"
             d="m 0,0 c 0,-0.6 0.012,-1.127 0.047,-1.583 l -0.936,0 -0.058,0.947 -0.026,0 c -0.275,-0.468 -0.886,-1.079 -1.918,-1.079 -0.912,0 -2.004,0.504 -2.004,2.543 l 0,3.394 1.057,0 0,-3.214 c 0,-1.104 0.336,-1.848 1.295,-1.848 0.707,0 1.199,0.492 1.391,0.96 0.06,0.156 0.095,0.348 0.095,0.54 l 0,3.562 L 0,4.222 0,0 Z" /></g><g
           transform="translate(314.2109,97.6113)"
           id="g150"><path
             id="path152"
             style="fill:#696461;fill-opacity:1;fill-rule:nonzero;stroke:none"
             d="m 0,0 c 0,0.181 -0.012,0.336 -0.059,0.48 -0.193,0.612 -0.709,1.116 -1.476,1.116 -1.008,0 -1.727,-0.852 -1.727,-2.196 0,-1.138 0.576,-2.087 1.715,-2.087 0.649,0 1.236,0.409 1.463,1.081 C -0.023,-1.427 0,-1.223 0,-1.043 L 0,0 Z m 1.045,-2.674 c 0,-1.332 -0.264,-2.147 -0.828,-2.65 -0.565,-0.529 -1.379,-0.697 -2.112,-0.697 -0.695,0 -1.462,0.168 -1.931,0.48 l 0.263,0.804 c 0.385,-0.24 0.985,-0.455 1.706,-0.455 1.078,0 1.871,0.563 1.871,2.026 l 0,0.647 -0.026,0 c -0.324,-0.539 -0.947,-0.97 -1.845,-0.97 -1.44,0 -2.473,1.222 -2.473,2.83 0,1.967 1.285,3.082 2.615,3.082 1.008,0 1.561,-0.527 1.811,-1.007 l 0.025,0 0.047,0.875 0.924,0 C 1.068,1.871 1.045,1.403 1.045,0.696 l 0,-3.37 z" /></g><g
           transform="translate(317.8965,96.9883)"
           id="g154"><path
             id="path156"
             style="fill:#696461;fill-opacity:1;fill-rule:nonzero;stroke:none"
             d="m 0,0 c 0,-1.271 0.732,-2.231 1.764,-2.231 1.007,0 1.761,0.948 1.761,2.254 0,0.984 -0.49,2.232 -1.738,2.232 C 0.539,2.255 0,1.104 0,0 m 4.605,0.06 c 0,-2.147 -1.486,-3.082 -2.89,-3.082 -1.57,0 -2.781,1.151 -2.781,2.986 0,1.942 1.271,3.082 2.877,3.082 1.668,0 2.794,-1.211 2.794,-2.986" /></g></g></g></g></svg>